HIERARCHY
ROOT Hips
{
	OFFSET 0.00000 0.00000 0.00000
	CHANNELS 6 Xposition Yposition Zposition Zrotation Yrotation Xrotation 
	JOINT LHipJoint
	{
		OFFSET 0 0 0
		CHANNELS 3 Zrotation Yrotation Xrotation
		JOINT LeftUpLeg
		{
			OFFSET 1.26600 -1.82114 0.91038
			CHANNELS 3 Zrotation Yrotation Xrotation
			JOINT LeftLeg
			{
				OFFSET 2.50076 -6.87080 0.00000
				CHANNELS 3 Zrotation Yrotation Xrotation
				JOINT LeftFoot
				{
					OFFSET 2.57364 -7.07102 0.00000
					CHANNELS 3 Zrotation Yrotation Xrotation
					JOINT LeftToeBase
					{
						OFFSET 0.13572 -0.37290 1.97004
						CHANNELS 3 Zrotation Yrotation Xrotation
						End Site
						{
							OFFSET 0.00000 -0.00000 1.01383
						}
					}
				}
			}
		}
	}
	JOINT RHipJoint
	{
		OFFSET 0 0 0
		CHANNELS 3 Zrotation Yrotation Xrotation
		JOINT RightUpLeg
		{
			OFFSET -1.20803 -1.82114 0.91038
			CHANNELS 3 Zrotation Yrotation Xrotation
			JOINT RightLeg
			{
				OFFSET -2.54916 -7.00377 0.00000
				CHANNELS 3 Zrotation Yrotation Xrotation
				JOINT RightFoot
				{
					OFFSET -2.56374 -7.04382 0.00000
					CHANNELS 3 Zrotation Yrotation Xrotation
					JOINT RightToeBase
					{
						OFFSET -0.23520 -0.64621 2.09921
						CHANNELS 3 Zrotation Yrotation Xrotation
						End Site
						{
							OFFSET -0.00000 -0.00000 1.10065
						}
					}
				}
			}
		}
	}
	JOINT LowerBack
	{
		OFFSET 0 0 0
		CHANNELS 3 Zrotation Yrotation Xrotation
		JOINT Spine
		{
			OFFSET 0.05492 2.10797 -0.12074
			CHANNELS 3 Zrotation Yrotation Xrotation
			JOINT Spine1
			{
				OFFSET 0.04577 2.11592 -0.04483
				CHANNELS 3 Zrotation Yrotation Xrotation
				JOINT Neck
				{
					OFFSET 0 0 0
					CHANNELS 3 Zrotation Yrotation Xrotation
					JOINT Neck1
					{
						OFFSET -0.10759 1.80167 0.15770
						CHANNELS 3 Zrotation Yrotation Xrotation
						JOINT Head
						{
							OFFSET 0.09237 1.77509 -0.40848
							CHANNELS 3 Zrotation Yrotation Xrotation
							End Site
							{
								OFFSET 0.03805 1.84093 -0.15754
							}
						}
					}
				}
				JOINT LeftShoulder
				{
					OFFSET 0 0 0
					CHANNELS 3 Zrotation Yrotation Xrotation
					JOINT LeftArm
					{
						OFFSET 3.42372 1.09575 -0.28209
						CHANNELS 3 Zrotation Yrotation Xrotation
						JOINT LeftForeArm
						{
							OFFSET 4.95681 -0.00000 0.00000
							CHANNELS 3 Zrotation Yrotation Xrotation
							JOINT LeftHand
							{
								OFFSET 3.40915 -0.00000 0.00000
								CHANNELS 3 Zrotation Yrotation Xrotation
								JOINT LeftFingerBase
								{
									OFFSET 0 0 0
									CHANNELS 3 Zrotation Yrotation Xrotation
									JOINT LeftHandIndex1
									{
										OFFSET 0.61640 -0.00000 0.00000
										CHANNELS 3 Zrotation Yrotation Xrotation
										End Site
										{
											OFFSET 0.49696 -0.00000 0.00000
										}
									}
								}
								JOINT LThumb
								{
									OFFSET 0 0 0
									CHANNELS 3 Zrotation Yrotation Xrotation
									End Site
									{
										OFFSET 0.50455 -0.00000 0.50455
									}
								}
							}
						}
					}
				}
				JOINT RightShoulder
				{
					OFFSET 0 0 0
					CHANNELS 3 Zrotation Yrotation Xrotation
					JOINT RightArm
					{
						OFFSET -3.24731 1.15872 -0.32221
						CHANNELS 3 Zrotation Yrotation Xrotation
						JOINT RightForeArm
						{
							OFFSET -5.35200 -0.00000 0.00000
							CHANNELS 3 Zrotation Yrotation Xrotation
							JOINT RightHand
							{
								OFFSET -3.43721 -0.00000 -0.00000
								CHANNELS 3 Zrotation Yrotation Xrotation
								JOINT RightFingerBase
								{
									OFFSET 0 0 0
									CHANNELS 3 Zrotation Yrotation Xrotation
									JOINT RightHandIndex1
									{
										OFFSET -0.72009 -0.00000 0.00000
										CHANNELS 3 Zrotation Yrotation Xrotation
										End Site
										{
											OFFSET -0.58056 -0.00000 0.00000
										}
									}
								}
								JOINT RThumb
								{
									OFFSET 0 0 0
									CHANNELS 3 Zrotation Yrotation Xrotation
									End Site
									{
										OFFSET -0.58942 -0.00000 0.58942
									}
								}
							}
						}
					}
				}
			}
		}
	}
}
MOTION
Frames: 6
Frame Time: 0.0169492
0.00 0.00 0.00 0 0 0 0 0 0 -21 0 0 0 0 0 0 0 0 0 0 0 0 0 0 21 0 0 0 0 0 0 0 0 0 0 0 0 0 0 0 0 0 0 0 0 0 0 -16 0 0 21 0 0 11 0 0 0 -8 0 0 0 0 0 0 0 0 0 0 0 0 0 0 0 0 0 0 0 0 8 0 0 0 0 0 0 0 0 0 0 0 0 0 0 0 0 0
0.00 0.00 0.00 -6.3833 8.5244 -0.0349 0.0000 0.0000 0.0000 -9.2291 -12.4860 -19.9638 7.3287 15.6026 50.1069 -0.5889 -18.3664 -6.6595 0.0001 0.0594 0.1632 0.0000 0.0000 0.0000 32.0643 -3.3819 -12.7912 -3.6500 -11.6795 34.6073 -1.8632 -0.3658 -25.9685 -0.2831 -3.4218 9.4555 6.6645 0.1559 6.2345 3.3872 0.7888 0.4607 -0.2994 0.3292 -2.9845 -7.7394 -0.8560 -16.6097 0.8833 1.0958 33.3379 1.8990 -0.3546 14.1720 0.0000 0.0000 0.0000 -91.6017 5.1143 22.1879 16.7959 -26.5879 -3.9956 -0.0000 0.0000 -2.7155 16.5548 23.4083 6.7351 -7.1250 0.0000 -0.0000 -13.2202 53.7986 -2.8990 0.0000 0.0000 0.0000 89.1956 -1.9355 17.1446 -14.9283 24.0461 -3.1967 0.0000 -0.0000 -10.4506 -22.4669 12.0756 -4.9445 7.1250 -0.0000 -0.0000 3.2979 -16.9586 2.1962
0.00 0.00 0.00 -8.9082 9.0262 -1.1440 0.0000 0.0000 0.0000 -4.0274 -12.8700 -29.0419 10.7519 17.8115 61.9732 -0.7128 -15.2656 9.8967 0.1383 2.3972 6.6047 0.0000 0.0000 0.0000 35.1889 -5.5316 -11.6157 -3.0379 -10.7562 31.4619 -1.6398 -0.0556 -24.2568 -0.4446 -4.2781 11.8604 9.2410 -0.0192 8.1926 4.1519 0.9616 1.1495 -0.9562 0.3921 -3.3274 -8.0991 -1.1162 -16.4908 0.9634 0.7781 32.8851 1.9338 -0.5093 13.9634 -0.0000 0.0000 0.0000 -91.4170 4.4228 22.0772 17.9300 -28.0675 -4.5163 -0.0000 0.0000 -2.2982 21.8792 22.5394 8.7509 -7.1250 0.0000 -0.0000 -7.4658 53.9216 -1.6444 -0.0000 0.0000 0.0000 88.7981 -1.7408 16.9487 -14.9945 24.1385 -3.2237 0.0000 -0.0000 -10.4088 -21.6598 12.2790 -4.8277 7.1250 -0.0000 -0.0000 3.8676 -16.8186 2.5891
0.00 0.00 0.00 -10.4933 8.2136 -2.2725 0.0000 0.0000 0.0000 -0.0307 -11.9080 -40.2039 16.1765 19.6458 78.7572 -0.5873 -13.6770 2.2912 0.0612 -1.5957 -4.3897 0.0000 0.0000 0.0000 37.3288 -6.8874 -8.7313 -2.2602 -9.3883 27.0176 -1.3727 0.0143 -22.1623 -0.5123 -4.5879 12.7369 10.7870 0.3614 9.7093 4.7855 1.7262 2.4460 -1.2374 0.8179 -2.7135 -8.1306 -1.3278 -16.6739 0.8096 0.5467 32.5766 1.8362 -0.6223 13.8847 -0.0000 0.0000 0.0000 -91.2154 3.7657 23.4096 19.4001 -29.9128 -5.2289 -0.0000 0.0000 -2.7777 20.3458 21.6778 7.7996 -7.1250 0.0000 -0.0000 -8.7111 52.7463 -1.6707 -0.0000 0.0000 0.0000 87.8179 -0.9714 17.3702 -14.7542 23.8026 -3.1261 0.0000 -0.0000 -10.5708 -22.1705 10.8029 -4.3676 7.1250 -0.0000 -0.0000 3.4574 -18.3495 2.1972
0.00 0.00 0.00 -10.2462 6.8510 -3.2707 0.0000 0.0000 0.0000 1.6360 -10.4900 -52.9811 22.1866 19.8850 96.4050 -0.3528 -13.9922 -4.8079 0.1033 -2.0729 -5.7071 0.0000 0.0000 0.0000 37.4042 -6.8829 -4.8340 -1.6729 -8.1486 23.1664 -1.1161 -0.9388 -20.3248 -0.4625 -4.3625 12.0988 10.5619 0.7458 11.2427 4.8963 2.3344 3.5004 -1.0897 1.1605 -2.3985 -8.2678 -1.4853 -16.4190 1.0011 0.2850 33.0870 1.9011 -0.7377 14.0689 0.0000 0.0000 0.0000 -91.3358 4.6118 24.1260 20.5321 -31.2781 -5.8051 -0.0000 0.0000 -4.8093 18.1740 24.8530 7.8557 -7.1250 0.0000 -0.0000 -12.2525 55.5484 -3.2070 0.0000 0.0000 0.0000 87.1994 -0.1721 14.7924 -12.9037 21.1459 -2.4184 0.0000 -0.0000 -6.7870 -22.3775 9.9740 -4.0788 7.1250 -0.0000 -0.0000 3.2846 -19.2214 2.0235
0.00 0.00 0.00 -9.3035 2.3607 6.1047 0.0000 0.0000 0.0000 0.3625 -14.2227 -64.7734 15.8294 19.5778 77.7231 -0.5907 -17.9775 -6.1545 0.1104 2.1423 5.8991 0.0000 0.0000 0.0000 33.1708 -8.7842 6.6028 -0.8196 -5.7766 16.1375 -0.1582 3.0567 -7.0791 -0.7593 5.5649 -15.5271 9.7508 1.4738 12.2488 3.1916 3.3641 2.2261 -2.6285 1.5496 -4.1504 -7.7675 -0.9730 -17.3467 2.2778 0.5006 33.9549 2.3928 -0.4434 14.6275 -0.0000 0.0000 0.0000 -91.3949 5.2836 21.6322 19.0325 -29.4591 -5.0468 -0.0000 0.0000 -4.1461 18.2377 19.5619 6.2959 -7.1250 0.0000 -0.0000 -10.0549 50.2229 -1.3060 -0.0000 0.0000 0.0000 89.3283 -1.1019 14.0140 -13.4778 21.9833 -2.6295 0.0000 -0.0000 -7.9623 -21.8978 13.6243 -5.4087 7.1250 -0.0000 -0.0000 3.7609 -15.3617 2.6360
